<?xml version="1.0" encoding="utf-8"?>
<svg version="1.1" x="0px" y="0px" viewBox="0 0 70 87.5" style="enable-background:new 0 0 70 70;" width="70px" height="87.5px" xmlns="http://www.w3.org/2000/svg" xmlns:bx="https://boxy-svg.com"><defs><bx:guide x="28.776290853984015" y="83.48470427987223" angle="0"/><bx:guide x="6.357552630531353" y="82.98279223009344" angle="0"/><bx:guide x="-1.5057361493363732" y="80.80784001438535" angle="90"/><bx:export><bx:file format="svg"/></bx:export></defs><g><path d="M3.8527658,60.8961182c-0.083313,0.7924194,0.4453123,1.5484009,1.1211545,1.97052   c0.8497238,0.5306473,1.9352841,0.6628494,3.4583135,0.9492188c1.8318481,0.3444214,3.8684692,0.6532593,5.4415283-0.3466797   c-0.2971802,1.1530762,0.5014038,2.3630981,1.5481567,2.9307861s2.2813721,0.6425781,3.4708862,0.6972046   c7.4238892,0.3408813,14.8621197,0.3677368,22.2882671,0.0805664c1.9552803-0.0756378,2.8091621-0.5846939,2.9378052-3.3554688   c0.6914673,0.3876953,1.6482544,0.2108154,2.1553345-0.3984375c0.3601685-0.4327393,0.4890747-1.0176392,0.8276367-1.4675293   c0.8774414-1.1658936,2.6955566-0.9532471,4.0302734-0.3635254c4.268013,1.8858604,4.310276,4.6471634,6.6668701,4.2338867   c0.6715355,0.1439209,1.9765549-0.5452576,2.5067749-2.4535522c0.7295113-2.6261482-0.2842522-3.8274689,0.0628662-4.3919678   c0.1248779-0.2030029,0.3856812-0.2870483,0.6234741-0.2721558c0.6181946,0.0385475,2.6894264,1.3766747,3.7435341-0.7417603   c0.6976166-0.786068,1.2591705-2.5454636,0.8739624-3.7622681c-0.2978516-0.9438477-1.3037109-1.8496094-2.4853554-1.7143555   c-0.3222656,0.0356445-0.5947266,0.1401367-0.8359375,0.2319336c-0.1982422,0.0756836-0.3691406,0.1416016-0.5009766,0.1430664   c-0.1529541-0.0078125-0.6223145-0.293396-1.1896973-0.8440552c0.8484116-2.5780144,0.7972374-3.4352913,0.8459473-3.6911011   c0.1208687-1.1291656,0.1907883-2.2489014-0.5957031-3.1616211c-0.2714844-0.3144531-0.7441406-0.3486328-1.0576172-0.0795898   c-1.8769531,1.6147461-4.6162109,2.4067383-8.3720703,2.4213867c-0.7177734,0-1.4130859-0.0195313-2.03125-0.2529297   c-1.7221184-0.6596527-0.848877-1.64254-1.640625-2.793457c-0.6103706-0.8684654-1.7076569-1.0107613-2.5957031,0.3833008   c-1.5956573,2.4337616-5.306366,1.3582039-8.1899414,0.8579102c-0.5904274-2.3177261-0.5518494-3.9279251-1.0952148-14.2568359   c-0.0625-1.2270508-0.1279297-2.4960938,0.1757813-3.65625c0.1767578-0.6772461,0.65625-1.9033203,1.9628906-2.5449219   c0.3798828-0.184082,0.9550781-0.4628906,1.1240234-1.1132813c0.1289063-0.5024414-0.0595703-1.0507813-0.4931641-1.4311523   c-0.6962357-0.6119194-1.6571388-0.6401672-2.0615234-1.0366211c-0.5361328-0.5249023-0.7246094-1.4160156-0.7226563-2.0756836   c0.0087891-3.0395508,1.1503906-7.131835,3.6816406-9.4223623c0.2605591-0.2353516,0.303894-0.6066284,0.1459961-0.9029541   c-0.0526123-0.2208252-0.1922607-0.4182129-0.4165039-0.5164795c-1.6386719-0.71875-3.3681641-0.9482422-4.8671875-0.6464844   c-0.5828209,0.1173668-1.0766869,0.3281441-1.6292114,0.5588989c-0.1752014-0.490984-0.5831184-0.8943224-0.6715698-1.130188   c-0.2347775-0.6193719,0.677269-1.8649569,0.2871094-3.1049805c-0.2646484-0.8374023-0.9951153-1.3916016-2.1728706-1.6464844   c-0.7490025-0.1621094-1.7236118-0.293457-2.625,0.1318359c-0.9179478,0.4331055-1.703104,1.5976563-1.4267368,2.7973633   c0.1158695,0.4998784,0.5238266,1.1108346,0.5595703,1.3789063c0.0213013,0.1744385-0.2357788,0.7817383-0.8233032,1.5489502   c-0.9276257,0.1993723-1.1806355,0.1369896-2.2059937-0.2213135c-0.4794922-0.1679688-0.9755859-0.3413086-1.5273438-0.4003906   c-1.3421631-0.1439209-2.5547485,0.2876587-3.4310303,1.2052002c-0.0118408,0.0106812-0.0248413,0.0200195-0.036438,0.0309448   c-0.0012817,0.0014038-0.0029297,0.0021973-0.0042114,0.0036011c-0.0012817,0.0013428-0.0015259,0.0031738-0.0028076,0.0045776   c-0.6765556,0.6455021-0.646925,1.5141544-0.2196045,1.9312744c0.9416294,0.9191465,1.6845493,0.6825924,2.5889282,3.2114868   c0.5650635,1.5802612,0.9277344,3.2327261,1.0762939,4.904357c0.1891327,2.1258602-0.7750587,2.192606-1.9239502,3.1721802   c-0.3633537,0.2034206-0.4039097,0.2986298-0.4938965,0.3991089c-0.5784302,0.3179321-1.3696899,1.5297241-0.5742798,2.0114136   c0.1810913,0.1096802,0.3916626,0.1577148,0.5891724,0.2340088c1.0631714,0.4107056,1.6322632,1.5983276,1.7672729,2.7300415   c0.1804314,1.5114288-0.0688992,3.0663414-0.0441284,4.5810547c0.0415249,2.5389786-0.0067616,5.6927147-0.2572021,8.2218018   c-3.1971054-2.5557098-6.2019596-5.8717117-8.963623-5.1885986c-0.4009638-0.3783913-1.9449158-0.6810646-2.6281128-0.7478638   c-0.5722656-0.0556641-2.3281255-0.2260742-2.8037114,1.5859375c-1.5191979,5.764946-2.5659518,18.4985771-2.9453123,22.5800781   c-0.0371704,0.4602051-0.0860596,1.1256714,0.0446167,1.7458496C3.8834665,60.7196655,3.8619211,60.8092651,3.8527658,60.8961182z    M34.3674126,31.5252686c0.6117439,11.8545036,0.4228249,13.8595161,2.2841187,17.6177368   c-4.880064,0.2689819-9.8166485,0.1759644-14.6912823-0.2506104c1.8350773-3.8537254,1.524231-6.1376457,2.1522827-17.3412476   c0.0361328-0.7064819,0.0670166-1.4660645,0.0333252-2.2370605c3.6698685,0.1671467,6.8964729,0.1980305,10.1773663,0.12677   C34.300457,30.1593628,34.3336601,30.8651733,34.3674126,31.5252686z M41.8127251,60.1951904   c-9.2236328,0.6972656-18.2421856,0.3837891-25.1503887,0.0180664c-1.2826433-1.9075699,2.2931499-5.9116402,4.5429077-9.8727417   c5.2002735,0.4868279,10.3943977,0.5866737,15.5723248,0.2990112c0.21521-0.0119629,0.4007568-0.1162109,0.5292358-0.2695313   C39.5775146,54.3489685,43.1064453,58.2959442,41.8127251,60.1951904z M42.1504936,61.6724243   c0.1167603,0.9121094,0.0599365,1.8192749-0.1795654,2.489563c-0.1328125,0.3725586-1.2587891,0.4199219-1.7392578,0.4404297   c-5.8088226,0.2634048-18.2278976,0.5579758-23.3857403-0.137207c-0.3984375-0.0537109-0.6416016-0.1621094-0.6689453-1.2138672   c-0.0142822-0.5268555,0.0471191-1.0490723,0.1434326-1.5543213   C24.9598103,62.1598282,33.5230408,62.3403091,42.1504936,61.6724243z M63.288311,53.9818115   c0.3857422-0.0458984,0.7793007,0.3222656,0.8916054,0.675293c0.1552734,0.4921875-0.0029297,1.0800781-0.1777344,1.590332   c-0.3937378,1.1500702-0.7486229,1.0458069-1.6582069,0.6469727c-1.4642639-0.6429443-1.8874626-0.4429474-2.8449097,0.0745239   c-0.0275879-1.1061401,0.2398682-2.243103,0.5880127-3.3724365C61.7929001,55.0090332,62.6400108,54.0524902,63.288311,53.9818115z    M51.4211235,49.0106201c3.6529541-0.0142212,6.4636841-0.7310181,8.55896-2.1801147   c0.0609131,0.3933716,0.0240479,0.8535156-0.02771,1.3397827c-0.0517387,0.262764,0.0250092,0.970787-0.8349609,3.5532227   c-0.7077217,2.1290016-1.4310951,4.2297745-1.0039063,6.4335938c0.2693558,1.3882103,0.4947815,1.292244,0.1318359,3.4389648   c-0.1380539,0.8188591-0.179451,1.2455063-0.2408447,1.5894775c-1.6705322-1.930481-4.223877-3.322998-7.7816162-4.2369385   c-1.6312027-0.4136963-3.1125069-0.5713921-4.4108887,0.5002441c0.5697021-3.9961548,1.0415039-8.0357666,1.4078369-12.0595703   C48.1922455,48.7950325,49.7225494,49.0106201,51.4211235,49.0106201z M42.7502251,47.8182373   c1.2213135-0.1574707,2.2662354-0.6547241,3.0565796-1.4412842c-0.4033813,4.6178589-0.9459839,9.2664185-1.6193848,13.8461304   c-0.1746216-0.3043213-0.3839111-0.5889282-0.6287231-0.8518677c0.0665207-1.8190117-1.0401344-3.5737915-2.0837402-5.223999   c0.2630005-2.0683594,0.5794067-4.1853638,0.940979-6.307251C42.5274467,47.8302002,42.6387749,47.8334961,42.7502251,47.8182373z    M40.895977,47.8424683c-0.2477417,1.4685669-0.4683838,2.9281616-0.670166,4.3773804   c-1.0697021-1.6296387-2.0704346-3.2042236-2.7496948-4.9020996C38.8708572,47.5638809,39.9389801,47.7643738,40.895977,47.8424683   z M34.5900688,27.4129639c-0.0477905,0.1827393-0.0702515,0.3681641-0.1038818,0.5526123   c-0.604332-0.0997066-3.1514645,0.1865292-10.5277081-0.1611938c-0.0252075-0.1213379-0.0370483-0.2440186-0.0686035-0.364563   c-0.3292847-1.2619629-1.0018311-2.2837524-1.9506226-2.9996338c4.8869019-0.1797485,9.8265991-0.2166138,14.7092266-0.1027222   C35.6664848,25.0320435,34.9366264,26.0852051,34.5900688,27.4129639z M28.2238598,4.2679453   c0.4882813-0.2324219,1.1191406-0.1416016,1.6669922-0.0224609c1.2470284,0.2705193,1.217989,0.6723533,0.9052734,1.7485352   c-0.4647617,1.6028008-0.2175674,2.03866,0.4060669,2.9154663c-0.9190331-0.152627-1.8498287-0.6288328-3.3240356-0.5963745   c0.8054028-1.6452661-0.1054783-2.2851086-0.2607422-2.9416504C27.5178051,4.9368906,27.8566723,4.4412851,28.2238598,4.2679453z    M23.1916332,9.8314219c3.4223423,1.1972733,3.2352104-0.7489414,6.6816406,0.2973633   c1.8588734,0.5640917,2.4688206,0.3399458,3.58494-0.1293945c0.4179878-0.1757813,0.8115425-0.3417969,1.2334175-0.4262695   c0.9489746-0.1923218,2.0320435-0.0984497,3.117981,0.241394c-2.5097656,2.8064575-3.4507446,6.9132681-3.4588013,9.7717886   c-0.0036354,1.1647034,0.3875542,2.4562759,1.2738647,3.2338257c-4.2525005-0.0789185-8.5399151-0.0483398-12.7956524,0.0908813   c1.3584881-1.1566772,1.4048214-2.7962818,1.1809692-4.5732422c-0.4844971-3.8164053-1.6110229-6.640624-3.4240723-8.6141348   C21.5651302,9.2888546,22.3396244,9.5328207,23.1916332,9.8314219z M20.9751415,42.380127   c-1.5287151,10.0392914-6.6647625,9.0374069-6.5697632,17.7625122c-1.3900681,0.6427383-3.8685722,1.8782463-5.0369873,0.8738403   c0.4355469-8.8974609,1.7939453-17.4516602,2.9541016-23.9926758   C14.2635622,36.0888252,17.4580288,39.7236328,20.9751415,42.380127z M5.3596015,58.8607178   c0.4230013-5.4578857,1.5836854-17.2186775,2.8896489-22.1733398c0.0810547-0.309082,0.1494141-0.5766602,1.2070313-0.4746094   c0.4920654,0.0479736,0.9712524,0.1646118,1.4320068,0.3105469c-1.1864014,6.6655884-2.5928345,15.4619141-3.026917,24.6286011   c-0.8708496,0.0002441-1.7128296-0.1621704-2.31427-0.4655151C5.3097568,60.5666466,5.2691689,59.9851875,5.3596015,58.8607178z"/><path d="M20.8625317,54.1424561c-1.2285156,1.0112305-1.8378906,2.737793-1.5146484,4.2963867   c0.0842857,0.407383,0.4836597,0.6656876,0.8867188,0.5820313c0.4052734-0.0839844,0.6660156-0.480957,0.5820313-0.8867188   c-0.2128906-1.027832,0.1884766-2.1665039,0.9990234-2.8334961c0.3203125-0.2631836,0.3662109-0.7358398,0.1025391-1.0556641   C21.6545238,53.9246826,21.1818676,53.880249,20.8625317,54.1424561z"/><path d="M55.0334282,56.4285889c0.3974609-0.1166992,0.625-0.5336914,0.5087891-0.9311523   c-0.2275391-0.7749023-0.0849609-1.6694336,0.3720703-2.3349609c0.234375-0.3417969,0.1474609-0.8085938-0.1933594-1.0429688   c-0.3417969-0.2348633-0.8085938-0.1474609-1.0429688,0.1933594c-0.7167969,1.0439453-0.9316406,2.3925781-0.5751953,3.6074219   C54.2188072,56.3163719,54.6353569,56.544693,55.0334282,56.4285889z"/><path d="M28.047102,13.4334726c0.8414154,0.2185135,1.7655106,0.2411938,2.6669922,0.0268555   c0.4023438-0.0957031,0.6513672-0.5,0.5556641-0.9033203c-0.0957031-0.402832-0.5009766-0.652832-0.9033203-0.5556641   c-0.6367188,0.1508789-1.3095703,0.1450195-1.9423828-0.0200195c-0.4033203-0.1020508-0.8115234,0.1367188-0.9140625,0.5375977   C27.4055004,12.9198008,27.6467113,13.3294687,28.047102,13.4334726z"/><path d="M63.2795219,43.7088623l2.4853554-1.2060547c0.3730469-0.1806641,0.5283203-0.6293945,0.3476563-1.0019531   c-0.1806641-0.3710938-0.6259766-0.5283203-1.0019531-0.3476563l-2.4853554,1.2060547   c-0.3730469,0.1806641-0.5283203,0.6293945-0.3476563,1.0024414   C62.4588814,43.7345428,62.9086723,43.8891373,63.2795219,43.7088623z"/><path d="M60.0715141,41.87146c0.2890625,0,0.5654297-0.168457,0.6875-0.4511719l0.9560547-2.199707   c0.1650391-0.3798828-0.0087891-0.8217773-0.3876953-0.9868164c-0.3769531-0.1640625-0.8212891,0.0078125-0.9873047,0.3881836   l-0.9560547,2.2006836C59.1683464,41.3196945,59.5339432,41.87146,60.0715141,41.87146z"/><path d="M56.569561,40.5452881c0.0947266,0.3276367,0.3945313,0.5405273,0.7197266,0.5405273   c0.4996338,0,0.8597946-0.4798317,0.7197266-0.9594727l-0.5537109-1.9042969   c-0.1152344-0.3974609-0.5361328-0.6279297-0.9287109-0.5107422c-0.3984375,0.1157227-0.6269531,0.5317383-0.5107422,0.9296875   L56.569561,40.5452881z"/></g></svg>